# xmcd
#
# Track frame offsets: 
#        150
#        7067
#        26201
#        46980
#        70971
#        81938
#        90959
#        109169
#        131102
#        151460
#        161361
#        176248
#        181261
#        192755
#        208427
#
# Disc length: 3011 seconds
#
# Revision: 0
# Processed by: cddbd v1.5.2PL0 Copyright (c) Steve Scherf et al.
# Submitted via: ExactAudioCopy v1.0b3
#
DISCID=d00bc10f
DTITLE=Aaron Jonah Lewis and Ed Hicks - Taking Razzer to the Tinkers
DYEAR=2011
DGENRE=Planxty Razzer
TTITLE0=Dear Old Dixie
TTITLE1=Dickson County Blues
TTITLE2=Hang Me
TTITLE3=L and N Rag
TTITLE4=Needlecase
TTITLE5=Nervous Breakdown
TTITLE6=Sandy Boys
TTITLE7=Sugar Hill
TTITLE8=Take Me back To Tennessee
TTITLE9=Whoop Em Up Cindy
TTITLE10=Willow Creek
TTITLE11=Cindy
TTITLE12=Coal Creek March
TTITLE13=Betsy Likens
TTITLE14=Big Eyed Rabbit
EXTD=
EXTT0=
EXTT1=
EXTT2=
EXTT3=
EXTT4=
EXTT5=
EXTT6=
EXTT7=
EXTT8=
EXTT9=
EXTT10=
EXTT11=
EXTT12=
EXTT13=
EXTT14=
PLAYORDER=
